<svg xmlns="http://www.w3.org/2000/svg" viewBox="0 0 128 128" id="Credible">
  <path d="M93 29a29 29 0 1 0-20.13 27.62A29 29 0 0 0 93 29zm-54 0a25 25 0 1 1 25 25 25 25 0 0 1-25-25zm23.33 70.34h-8.44a19.46 19.46 0 0 0 .59-4.46c-.26-2.44-.86-8.15-5.32-10.2a6.86 6.86 0 0 0-7.33 1c-2.68 2.23-2.53 5.33-2.45 7v2c-.59 1.47-3.13 5.6-4 7l-.42.68V100a2 2 0 0 0-2-2H23a2 2 0 0 0-2 2v26a2 2 0 0 0 2 2h10a2 2 0 0 0 1.91-1.45 12.83 12.83 0 0 0 1.38 0 8.57 8.57 0 0 0 2.51 1.24 3.84 3.84 0 0 0 1.07.15h18.5a6.4 6.4 0 0 0 2.06-.33 6.63 6.63 0 0 0 4.61-6.3 7.91 7.91 0 0 0 0-.85 6.61 6.61 0 0 0 1.58-5.68 6.56 6.56 0 0 0 1.36-4 6.74 6.74 0 0 0-.15-1.43 6.53 6.53 0 0 0 1.17-3.77c0-3.58-2.87-6.24-6.67-6.24zm0 8.87h-.66a2.63 2.63 0 0 1-.41 5.24h-1.12a2.64 2.64 0 0 1-.11 5.27h-1.54a2.64 2.64 0 0 1-.12 5.27H39.9c-.93-.26-1.61-1-2.5-1.36a1.81 1.81 0 0 0-.63-.09 14.3 14.3 0 0 1-1.77 0v-15.19s2.63-1.6 2.71-1.78c.34-.76 5.7-8.91 5.7-10.51v-1.67c0-1.65-.44-3.51 1-4.68a2.83 2.83 0 0 1 3.12-.39c2.27 1 2.78 4.81 3 7 .12 1.16-1.54 7.61-1.85 8h13.65c1.48 0 2.67.78 2.67 2.24a2.65 2.65 0 0 1-2.67 2.65zM2 107h13a2 2 0 0 0 0-4H2a2 2 0 0 0 0 4zm0 16h13a2 2 0 0 0 0-4H2a2 2 0 0 0 0 4zm13-12h-5a2 2 0 0 0 0 4h5a2 2 0 0 0 0-4z" fill="#1c3f60" class="color000000 svgShape"></path>
  <path d="M64 62c-.89 0-1.77 0-2.65-.12l-4 26.89a26.21 26.21 0 0 1 1.12 5.7 7.6 7.6 0 0 1 0 .87h3.84c5.47 0 9.72 3.56 10.52 8.52l-5.9-42C66 61.95 65 62 64 62zM39.28 82.55A10.87 10.87 0 0 1 45.65 80h.52a11 11 0 0 1 4.66 1 11.16 11.16 0 0 1 3.27 2.28l3.29-22A32.9 32.9 0 0 1 42.5 54H42c-17.62 0-32 14.65-32 32.66V94h23a5.92 5.92 0 0 1 2.06.37c.13-.24.25-.46.35-.66V92.83c-.11-1.83-.35-6.76 3.87-10.28zM93 75.95l-1.94 4.12-4.56.7 3.31 3.38-.76 4.62L93 86.6l3.95 2.17-.76-4.62 3.31-3.38-4.56-.7L93 75.95z" fill="#1c3f60" class="color000000 svgShape"></path>
  <path d="M118 121.28V86.66C118 68.65 103.62 54 86 54h-.5q-1 .87-2.1 1.67a32.85 32.85 0 0 1-12.47 5.59l6 43.12a2 2 0 0 1-.69 1.8l-4.15 3.53c-.07.17-.14.36-.22.53s0 .38 0 .58a10.59 10.59 0 0 1-1.24 5v.28a10.57 10.57 0 0 1-1.66 5.7 10.51 10.51 0 0 1-2.29 6.2h44.7a6.68 6.68 0 0 0 6.62-6.72Zm-13.88-39.52-3.66 3.74.87 5.29a2.83 2.83 0 0 1-.57 2.35 2.46 2.46 0 0 1-1.88.86 3 3 0 0 1-1.46-.4L93 91.16l-4.43 2.44a2.64 2.64 0 0 1-3.33-.46 2.83 2.83 0 0 1-.57-2.35l.87-5.29-3.66-3.74a2.73 2.73 0 0 1-.75-2.8 2.67 2.67 0 0 1 2.25-1.76l5-.76 2.24-4.77a2.57 2.57 0 0 1 4.82 0l2.24 4.77 5 .76a2.67 2.67 0 0 1 2.19 1.8 2.73 2.73 0 0 1-.75 2.76Z" fill="#1c3f60" class="color000000 svgShape"></path>
</svg>
