<svg xmlns="http://www.w3.org/2000/svg" viewBox="0 0 64 64" id="CustomerService">
  <g fill="#1c3f60" class="color000000 svgShape">
    <path d="M43.59,5.44c-2.07-1.64-4.91-1-6.25-.63C36.61,4.06,35.05,3,32,3c-3.78,0-9,.43-12.16,2.47C13.89,9.27,13,20,13,26v9a1,1,0,0,0,.29.71C13.51,35.92,14.8,37,19,37a6.15,6.15,0,0,0,5.44-2.69A12,12,0,0,0,40.92,33H44a3,3,0,0,0,3-3V27a3,3,0,0,0,3-3V19a3,3,0,0,0-2.1-2.85A12,12,0,0,0,43.59,5.44ZM20,18.34v5.48a3,3,0,0,1-.72-5.27ZM40,31H33.72a2,2,0,1,0,0,2H38a10,10,0,0,1-16-8V20a41.82,41.82,0,0,0,8.24-1,11.86,11.86,0,0,0,5.47-3.11c1.56,2.55,4.81,3.78,6.29,4.23C41.72,23.47,42.92,27.11,40,31Zm5-1a1,1,0,0,1-1,1H42.38A20,20,0,0,0,44,26a1,1,0,0,0,1,1Z" fill="#1c3f60" class="color000000 svgShape"></path>
    <path d="M56.55,46a9.15,9.15,0,0,0-6.73-6l-.09,0L37.92,37.67a13.84,13.84,0,0,1-11.84,0C24.49,38,14.17,40,13.53,40.14v0A9,9,0,0,0,7.1,47.32L5,59.83A1,1,0,0,0,6,61H27.42a1,1,0,0,0,1-1.16l-3-18.57,5.83,4.32a1,1,0,0,0,1.18,0l6.24-4.42-3,18.65a1.15,1.15,0,0,0,1,1.16H58a1,1,0,0,0,1-1.16c-2.22-13-2-12.68-2.44-13.9Z" fill="#1c3f60" class="color000000 svgShape"></path>
  </g>
</svg>
