<svg xmlns="http://www.w3.org/2000/svg" enable-background="new 0 0 68 68" viewBox="0 0 68 68" id="Portfolio">
  <path fill="#0497ce" d="M65.5,19.75944v14.9507c0,2.20914-1.79086,4-4,4h-55c-2.20914,0-4-1.79086-4-4v-14.9507
				c0-2.20914,1.79086-4,4-4h55C63.70914,15.75943,65.5,17.55029,65.5,19.75944z" class="color9de0ee svgShape"></path>
  <path fill="#78daff" d="M65.5,34.71014v22.95001c0,2.20996-1.78997,4-4,4h-55c-2.21002,0-4-1.79004-4-4V34.71014
				c0,2.20996,1.78998,4,4,4h55C63.71003,38.71014,65.5,36.9201,65.5,34.71014z" class="colorffca78 svgShape"></path>
  <path fill="#65d1fa" d="M18 15.76013v35.90002h-4.5V15.76013c0-.55228.44771-1 1-1H17C17.55229 14.76013 18 15.20784 18 15.76013zM54.5 15.76013v35.90002H50V15.76013c0-.55228.44772-1 1-1h2.5C54.05229 14.76013 54.5 15.20784 54.5 15.76013z" class="colorfa8465 svgShape"></path>
  <path fill="#efefef" d="M44.77002,11.04016v4.71997h-3v-4.71997c0-0.94-0.76001-1.70001-1.70001-1.70001H27.93
			c-0.94,0-1.70001,0.76001-1.70001,1.70001v4.71997h-3v-4.71997c0-2.59003,2.11005-4.70001,4.70001-4.70001h12.14001
			C42.65998,6.34015,44.77002,8.45013,44.77002,11.04016z" class="colorefefef svgShape"></path>
  <line x1="29.813" x2="38.188" y1="35.067" y2="35.067" fill="#FA8465"></line>
  <line x1="33.373" x2="34.716" y1="32.556" y2="32.556" fill="#FA8465"></line>
  <path fill="#efefef" d="M56.03203,36.52618v6.59697c0,0.38309-0.31056,0.69366-0.69365,0.69366h-6.17675
				c-0.38309,0-0.69365-0.31056-0.69365-0.69366v-6.59697c0-0.38309,0.31056-0.69366,0.69365-0.69366h6.17675
				C55.72147,35.83252,56.03203,36.14309,56.03203,36.52618z" class="colorefefef svgShape"></path>
  <line x1="52.25" x2="52.25" y1="43.817" y2="39.131" fill="#EFEFEF"></line>
  <path fill="#efefef" d="M19.53203,36.52618v6.59697c0,0.38309-0.31056,0.69366-0.69366,0.69366h-6.17675
				c-0.38309,0-0.69366-0.31056-0.69366-0.69366v-6.59697c0-0.38309,0.31056-0.69366,0.69366-0.69366h6.17675
				C19.22147,35.83252,19.53203,36.14309,19.53203,36.52618z" class="colorefefef svgShape"></path>
  <line x1="15.75" x2="15.75" y1="43.817" y2="39.131" fill="#EFEFEF"></line>
  <line x1="52.25" x2="52.25" y1="29.317" y2="29.983" fill="#EFEFEF"></line>
  <line x1="52.25" x2="52.25" y1="32.9" y2="33.567" fill="#EFEFEF"></line>
  <line x1="15.75" x2="15.75" y1="29.317" y2="29.983" fill="#EFEFEF"></line>
  <line x1="15.75" x2="15.75" y1="32.9" y2="33.567" fill="#EFEFEF"></line>
  <path fill="#414141" d="M2.5,30.25975c0.27637,0,0.5-0.22363,0.5-0.5v-2c0-0.27637-0.22363-0.5-0.5-0.5s-0.5,0.22363-0.5,0.5v2
		C2,30.03612,2.22363,30.25975,2.5,30.25975z" class="color414141 svgShape"></path>
  <path fill="#414141" d="M66,34.70995v-14.9502c0-2.48145-2.01855-4.5-4.5-4.5h-6.5921c-0.20709-0.58075-0.7569-1-1.4079-1H51
		c-0.651,0-1.20081,0.41925-1.4079,1h-4.32208v-4.21973c0-2.86719-2.33301-5.20019-5.2002-5.20019H27.93018
		c-2.86719,0-5.2002,2.33301-5.2002,5.20019v4.21973H18.4079c-0.20709-0.58075-0.7569-1-1.4079-1h-2.5
		c-0.651,0-1.20081,0.41925-1.4079,1H6.5c-2.48145,0-4.5,2.01855-4.5,4.5v6c0,0.27637,0.22363,0.5,0.5,0.5s0.5-0.22363,0.5-0.5v-6
		c0-1.92969,1.57031-3.5,3.5-3.5H13V35.333h-0.33838c-0.6582,0-1.19385,0.53516-1.19385,1.19336v1.68359H6.5
		c-1.92969,0-3.5-1.57031-3.5-3.5v-2.9502c0-0.27637-0.22363-0.5-0.5-0.5s-0.5,0.22363-0.5,0.5v2.9502v22.9502
		c0,2.48145,2.01855,4.5,4.5,4.5h55c2.48145,0,4.5-2.01855,4.5-4.5v-6c0-0.27637-0.22363-0.5-0.5-0.5s-0.5,0.22363-0.5,0.5v6
		c0,1.92969-1.57031,3.5-3.5,3.5h-55c-1.92969,0-3.5-1.57031-3.5-3.5V37.50347c0.82532,1.03162,2.0791,1.70648,3.5,1.70648h4.96777
		v3.91309c0,0.6582,0.53564,1.19336,1.19385,1.19336H13v7.34375c0,0.27637,0.22363,0.5,0.5,0.5H18c0.27637,0,0.5-0.22363,0.5-0.5
		v-7.34375h0.33838c0.6582,0,1.19385-0.53516,1.19385-1.19336v-3.91309h27.93555v3.91309c0,0.6582,0.53564,1.19336,1.19385,1.19336
		H49.5v7.34375c0,0.27637,0.22363,0.5,0.5,0.5h4.5c0.27637,0,0.5-0.22363,0.5-0.5v-7.34375h0.33838
		c0.6582,0,1.19385-0.53516,1.19385-1.19336v-3.91309H61.5c1.4209,0,2.67468-0.67487,3.5-1.70648v8.15668
		c0,0.27637,0.22363,0.5,0.5,0.5s0.5-0.22363,0.5-0.5V34.70995z M50.5,15.75975c0-0.27539,0.22412-0.5,0.5-0.5h2.5
		c0.27588,0,0.5,0.22461,0.5,0.5V35.333h-3.5V15.75975z M23.72998,11.04003c0-2.31641,1.88428-4.20019,4.2002-4.20019h12.13965
		c2.31592,0,4.2002,1.88379,4.2002,4.20019v4.21973h-2v-4.21973c0-1.21289-0.98682-2.2002-2.2002-2.2002H27.93018
		c-1.21338,0-2.2002,0.9873-2.2002,2.2002v4.21973h-2V11.04003z M41.27002,11.04003v4.21973H26.72998v-4.21973
		c0-0.66211,0.53857-1.2002,1.2002-1.2002h12.13965C40.73145,9.83983,41.27002,10.37792,41.27002,11.04003z M14,15.75975
		c0-0.27539,0.22412-0.5,0.5-0.5H17c0.27588,0,0.5,0.22461,0.5,0.5V35.333H14V15.75975z M17.5,51.16014H14v-6.84375h3.5V51.16014z
		 M19.03223,43.12304c0,0.10645-0.08691,0.19336-0.19385,0.19336H16.25v-4.18555c0-0.27637-0.22363-0.5-0.5-0.5
		s-0.5,0.22363-0.5,0.5v4.18555h-2.58838c-0.10693,0-0.19385-0.08691-0.19385-0.19336v-6.59668
		c0-0.10645,0.08691-0.19336,0.19385-0.19336h6.17676c0.10693,0,0.19385,0.08691,0.19385,0.19336V43.12304z M47.96777,36.52636
		v1.68359H20.03223v-1.68359c0-0.6582-0.53564-1.19336-1.19385-1.19336H18.5V16.25975c22.12354,0,12.97729,0,31,0V35.333h-0.33838
		C48.50342,35.333,47.96777,35.86815,47.96777,36.52636z M54,51.16014h-3.5v-6.84375H54V51.16014z M55.53223,43.12304
		c0,0.10645-0.08691,0.19336-0.19385,0.19336H52.75v-4.18555c0-0.27637-0.22363-0.5-0.5-0.5s-0.5,0.22363-0.5,0.5v4.18555h-2.58838
		c-0.10693,0-0.19385-0.08691-0.19385-0.19336v-6.59668c0-0.10645,0.08691-0.19336,0.19385-0.19336h6.17676
		c0.10693,0,0.19385,0.08691,0.19385,0.19336V43.12304z M65,34.70995c0,1.92969-1.57031,3.5-3.5,3.5h-4.96777v-1.68359
		c0-0.6582-0.53564-1.19336-1.19385-1.19336H55V16.25975h6.5c1.92969,0,3.5,1.57031,3.5,3.5V34.70995z" class="color414141 svgShape"></path>
  <path fill="#414141" d="M65.5 47.16014c-.27637 0-.5.22363-.5.5v2c0 .27637.22363.5.5.5s.5-.22363.5-.5v-2C66 47.38378 65.77637 47.16014 65.5 47.16014zM38.1875 34.56639h-8.375c-.27637 0-.5.22363-.5.5s.22363.5.5.5h8.375c.27637 0 .5-.22363.5-.5S38.46387 34.56639 38.1875 34.56639zM33.37256 33.05663h1.34375c.27637 0 .5-.22363.5-.5s-.22363-.5-.5-.5h-1.34375c-.27637 0-.5.22363-.5.5S33.09619 33.05663 33.37256 33.05663zM52.25 28.81639c-.27637 0-.5.22363-.5.5v.66699c0 .27637.22363.5.5.5s.5-.22363.5-.5v-.66699C52.75 29.04003 52.52637 28.81639 52.25 28.81639zM52.25 32.40038c-.27637 0-.5.22363-.5.5v.66602c0 .27637.22363.5.5.5s.5-.22363.5-.5v-.66602C52.75 32.62401 52.52637 32.40038 52.25 32.40038zM15.75 28.81639c-.27637 0-.5.22363-.5.5v.66699c0 .27637.22363.5.5.5s.5-.22363.5-.5v-.66699C16.25 29.04003 16.02637 28.81639 15.75 28.81639zM15.75 32.40038c-.27637 0-.5.22363-.5.5v.66602c0 .27637.22363.5.5.5s.5-.22363.5-.5v-.66602C16.25 32.62401 16.02637 32.40038 15.75 32.40038z" class="color414141 svgShape"></path>
</svg>
