<svg xmlns="http://www.w3.org/2000/svg" viewBox="0 0 64 64" id="DeliveryRoute">
  <g fill="#000000" class="color000000 svgShape">
    <path fill="#1c3f60" d="M53.86,11.94a3,3,0,1,0-3,3A3,3,0,0,0,53.86,11.94Zm-4,0a1,1,0,1,1,1,1A1,1,0,0,1,49.85,11.94Z" class="color0c084c svgShape"></path>
    <path fill="#1c3f60" d="M55.07,22a28.9,28.9,0,0,0,2.19-9.51c0-.16,0-.33,0-.51h0A6.32,6.32,0,0,0,53,5.86,6.45,6.45,0,0,0,44.43,12a28.84,28.84,0,0,0,2.21,10c-3.56.51-6.93,1.77-6.93,4,0,3,5.78,4.31,11.15,4.31S62,29,62,26C62,23.75,58.63,22.49,55.07,22ZM48.26,8.36a4.41,4.41,0,0,1,2.6-.84,4.67,4.67,0,0,1,1.5.25A4.37,4.37,0,0,1,55.28,12h0c0,.14,0,.27,0,.41a27.76,27.76,0,0,1-2.57,10,24.59,24.59,0,0,1-1.17,2.22.79.79,0,0,1-.68.38.77.77,0,0,1-.66-.38A24.46,24.46,0,0,1,49,22.39,26.84,26.84,0,0,1,46.43,12,4.46,4.46,0,0,1,48.26,8.36Zm2.6,20c-5.94,0-9.15-1.64-9.15-2.31,0-.44,1.74-1.65,5.8-2.12l.1.2c.28.54.57,1.07.87,1.57A2.74,2.74,0,0,0,50.85,27h0a2.78,2.78,0,0,0,2.4-1.36c.23-.39.43-.76.62-1.11l.16-.31c.06-.11.13-.23.18-.34C58.27,24.35,60,25.56,60,26,60,26.67,56.8,28.31,50.86,28.31Z" class="color0c084c svgShape"></path>
    <path fill="#1c3f60" d="M48.86,36.36H21.32a3,3,0,0,1-3-3V30a3,3,0,0,1,3-3H31.67a3.58,3.58,0,1,0,0-2H21.32a5,5,0,0,0-5,5v3.36a5,5,0,0,0,5,5H48.86a3,3,0,0,1,3,3V51a3,3,0,0,1-3,3H30.31a3.58,3.58,0,1,0,0,2H48.86a5,5,0,0,0,5-5V41.36A5,5,0,0,0,48.86,36.36ZM35.09,24.42A1.58,1.58,0,1,1,33.51,26,1.58,1.58,0,0,1,35.09,24.42Zm-8.2,32.16A1.58,1.58,0,1,1,28.47,55,1.58,1.58,0,0,1,26.89,56.58Z" class="color0c084c svgShape"></path>
    <path fill="#1c3f60" d="M18.59,44.7H5.41A3.41,3.41,0,0,0,2,48.11V58.59A3.41,3.41,0,0,0,5.41,62H18.59A3.41,3.41,0,0,0,22,58.59V48.11A3.41,3.41,0,0,0,18.59,44.7Zm-4.6,2v3.21a.21.21,0,0,1-.09.18.25.25,0,0,1-.21,0L13,49.74a2.29,2.29,0,0,0-1-.23,2.2,2.2,0,0,0-1,.24l-.68.34a.18.18,0,0,1-.2,0,.19.19,0,0,1-.1-.17V46.7Zm6,11.89A1.41,1.41,0,0,1,18.59,60H5.41A1.41,1.41,0,0,1,4,58.59V48.11A1.41,1.41,0,0,1,5.41,46.7H8v3.21a2.19,2.19,0,0,0,1.06,1.88,2.17,2.17,0,0,0,2.15.08l.68-.34a.21.21,0,0,1,.19,0l.69.35a2.23,2.23,0,0,0,1,.24,2.16,2.16,0,0,0,1.15-.33A2.18,2.18,0,0,0,16,49.91V46.7h2.6A1.41,1.41,0,0,1,20,48.11Z" class="color0c084c svgShape"></path>
  </g>
</svg>
